PathFileType	3	(X/Y/Z)	squats_1__view1_aligned.trc
DataRate	CameraRate	NumFrames	NumMarkers	Units	OrigDataRate	OrigDataStartFrame	OrigNumFrames
100.0	100.0	6	19	mm	100.0	551	1660
Frame#	Time	pelvis			neck			head			hip_left			hip_right			knee_left			knee_right			ankle_left			ankle_right			heel_left			heel_right			toe_left			toe_right			shoulder_left			shoulder_right			elbow_left			elbow_right			wrist_left			wrist_right			
		X1	Y1	Z1	X2	Y2	Z2	X3	Y3	Z3	X4	Y4	Z4	X5	Y5	Z5	X6	Y6	Z6	X7	Y7	Z7	X8	Y8	Z8	X9	Y9	Z9	X10	Y10	Z10	X11	Y11	Z11	X12	Y12	Z12	X13	Y13	Z13	X14	Y14	Z14	X15	Y15	Z15	X16	Y16	Z16	X17	Y17	Z17	X18	Y18	Z18	X19	Y19	Z19	
551	5.50000	79.609564	736.371004	169.832886	50.702570	1241.230679	-93.524156	46.495807	1333.879303	-249.837074	-1.677644	741.081012	176.558758	160.896671	731.660998	163.107086	-126.739076	472.195423	-131.847273	212.314091	450.355466	-157.613474	-107.999507	149.658745	103.769332	235.588130	113.523519	54.307573	-96.132056	113.205943	150.352383	239.192910	81.073613	104.583389	-169.534203	69.549154	-58.648841	226.623531	9.644306	-110.195606	-131.607638	1192.768010	-33.634856	237.592932	1202.515578	-44.244071	-254.561493	947.629124	44.274032	353.874517	940.442022	-15.162390	-229.316319	856.149994	-191.296986	356.176420	839.471061	-246.563995
552	5.51000	79.301302	730.059110	172.115724	50.119979	1232.493163	-93.868498	45.687552	1323.901428	-250.764968	-2.144509	734.691440	178.822688	160.747028	725.426781	165.408812	-127.064328	471.444213	-134.398578	213.102170	449.192568	-159.290594	-107.492573	150.181405	103.034140	235.581190	113.422332	54.542908	-95.620825	113.881349	149.765489	239.127756	81.065349	104.924768	-168.898089	69.824609	-59.180960	226.328084	9.629805	-109.838484	-132.041388	1184.782942	-33.596653	236.866074	1194.140819	-44.430541	-255.842412	940.352707	44.797828	353.806098	932.527325	-14.852243	-231.266236	849.944299	-191.335107	357.162231	831.822284	-246.223478
553	5.52000	78.993040	723.747216	174.398561	49.537387	1223.755648	-94.212840	44.879297	1313.923552	-251.692862	-2.611374	728.301868	181.086618	160.597385	719.192565	167.710538	-127.389581	470.693003	-136.949884	213.890249	448.029669	-160.967715	-106.985638	150.704066	102.298949	235.574249	113.321146	54.778244	-95.109594	114.556755	149.178594	239.062603	81.057084	105.266146	-168.261976	70.100064	-59.713079	226.032636	9.615304	-109.481362	-132.475137	1176.797874	-33.558449	236.139216	1185.766060	-44.617011	-257.123331	933.076290	45.321623	353.737678	924.612629	-14.542096	-233.216153	843.738604	-191.373228	358.148043	824.173508	-245.882962
554	5.53000	78.684778	717.435323	176.681399	48.954796	1215.018132	-94.557182	44.071042	1303.945676	-252.620756	-3.078238	721.912296	183.350548	160.447742	712.958349	170.012264	-127.714834	469.941794	-139.501189	214.678327	446.866770	-162.644835	-106.478704	151.226727	101.563758	235.567308	113.219960	55.013579	-94.598363	115.232161	148.591700	238.997449	81.048820	105.607525	-167.625862	70.375520	-60.245198	225.737189	9.600804	-109.124241	-132.908887	1168.812806	-33.520246	235.412358	1177.391301	-44.803481	-258.404250	925.799873	45.845419	353.669258	916.697932	-14.231949	-235.166070	837.532909	-191.411349	359.133854	816.524731	-245.542445
555	5.54000	78.376517	711.123429	178.964236	48.372205	1206.280616	-94.901524	43.262787	1293.967801	-253.548649	-3.545103	715.522724	185.614478	160.298099	706.724132	172.313991	-128.040087	469.190584	-142.052495	215.466406	445.703872	-164.321956	-105.971769	151.749387	100.828567	235.560367	113.118773	55.248915	-94.087132	115.907568	148.004805	238.932296	81.040556	105.948903	-166.989748	70.650975	-60.777318	225.441741	9.586303	-108.767119	-133.342636	1160.827738	-33.482042	234.685500	1169.016542	-44.989951	-259.685170	918.523455	46.369215	353.600839	908.783235	-13.921803	-237.115988	831.327215	-191.449470	360.119665	808.875954	-245.201928
556	5.55000	78.068255	704.811535	181.247074	47.789613	1197.543101	-95.245866	42.454532	1283.989925	-254.476543	-4.011967	709.133152	187.878408	160.148456	700.489916	174.615717	-128.365340	468.439374	-144.603800	216.254485	444.540973	-165.999076	-105.464835	152.272048	100.093375	235.553426	113.017587	55.484250	-93.575901	116.582974	147.417911	238.867142	81.032292	106.290281	-166.353634	70.926431	-61.309437	225.146293	9.571802	-108.409997	-133.776386	1152.842670	-33.443838	233.958642	1160.641782	-45.176421	-260.966089	911.247038	46.893011	353.532419	900.868538	-13.611656	-239.065905	825.121520	-191.487591	361.105476	801.227177	-244.861411
